<?xml version="1.0" encoding="UTF-8" standalone="no"?>
<!-- Created with Inkscape (http://www.inkscape.org/) -->

<svg
   width="10.583334mm"
   height="10.583337mm"
   viewBox="0 0 10.583334 10.583337"
   version="1.1"
   id="svg5"
   xml:space="preserve"
   xmlns="http://www.w3.org/2000/svg"
   xmlns:svg="http://www.w3.org/2000/svg"><defs
     id="defs2" /><g
     id="layer1"
     transform="translate(-87.80307,-98.224123)"><path
       d="m 89.681612,106.49235 q 0.833437,-0.52916 1.647031,-0.80036 0.813594,-0.2712 1.766094,-0.2712 0.9525,0 1.772708,0.2712 0.820208,0.2712 1.653646,0.80036 0.582083,-0.71437 0.826823,-1.44198 0.24474,-0.7276 0.24474,-1.53458 0,-1.91823 -1.289844,-3.20807 -1.289844,-1.289847 -3.208073,-1.289847 -1.91823,0 -3.208073,1.289847 -1.289844,1.28984 -1.289844,3.20807 0,0.80698 0.251354,1.53458 0.251354,0.72761 0.833438,1.44198 z m 3.413125,-2.57969 q -0.767292,0 -1.289844,-0.52255 -0.522552,-0.52255 -0.522552,-1.28984 0,-0.76729 0.522552,-1.28985 0.522552,-0.52255 1.289844,-0.52255 0.767291,0 1.289843,0.52255 0.522552,0.52256 0.522552,1.28985 0,0.76729 -0.522552,1.28984 -0.522552,0.52255 -1.289843,0.52255 z m 0,4.8948 q -1.11125,0 -2.07698,-0.41672 -0.965729,-0.41672 -1.680104,-1.13771 -0.714375,-0.72099 -1.124479,-1.68672 -0.410104,-0.96573 -0.410104,-2.06375 0,-1.08479 0.416719,-2.05052 0.416718,-0.96573 1.137708,-1.680105 0.72099,-0.714375 1.686719,-1.131094 0.965729,-0.416718 2.06375,-0.416718 1.084791,0 2.050521,0.416718 0.965729,0.416719 1.680104,1.131094 0.714375,0.714375 1.131094,1.680105 0.416719,0.96573 0.416719,2.06375 0,1.08479 -0.416719,2.05052 -0.416719,0.96573 -1.131094,1.68672 -0.714375,0.72099 -1.680104,1.13771 -0.96573,0.41672 -2.06375,0.41672 z"
       id="path132"
       style="stroke-width:0.264583" /></g></svg>
