<?xml version="1.0" encoding="UTF-8" standalone="no"?>
<svg
   height="42.549999"
   width="38.549999"
   version="1.1"
   id="svg10641"
   xmlns:xlink="http://www.w3.org/1999/xlink"
   xmlns="http://www.w3.org/2000/svg"
   xmlns:svg="http://www.w3.org/2000/svg">
  <defs
     id="defs10645">
    <linearGradient
       id="linearGradient11481">
      <stop
         style="stop-color:#4783ff;stop-opacity:1;"
         offset="0"
         id="stop11477" />
      <stop
         style="stop-color:#4783ff;stop-opacity:0;"
         offset="1"
         id="stop11479" />
    </linearGradient>
    <linearGradient
       xlink:href="#linearGradient11481"
       id="linearGradient11483"
       x1="-0.15878889"
       y1="-0.15878889"
       x2="38.268124"
       y2="42.396633"
       gradientUnits="userSpaceOnUse" />
  </defs>
  <path
     d="M 19.25,25.6 Q 18.3,25.6 17.625,24.95 16.95,24.3 16.95,23.3 16.95,22.35 17.6,21.675 18.25,21 19.25,21 q 0.95,0 1.625,0.65 0.675,0.65 0.675,1.65 0,0.95 -0.65,1.625 -0.65,0.675 -1.65,0.675 z m -8,0 Q 10.3,25.6 9.625,24.95 8.95,24.3 8.95,23.3 8.95,22.35 9.6,21.675 10.25,21 11.25,21 q 0.95,0 1.625,0.65 0.675,0.65 0.675,1.65 0,0.95 -0.65,1.625 -0.65,0.675 -1.65,0.675 z m 16,0 q -0.9,0 -1.6,-0.65 -0.7,-0.65 -0.7,-1.65 0,-0.95 0.7,-1.625 0.7,-0.675 1.6,-0.675 0.95,0 1.625,0.65 0.675,0.65 0.675,1.65 0,0.95 -0.65,1.625 -0.65,0.675 -1.65,0.675 z m -8,8 q -0.95,0 -1.625,-0.7 -0.675,-0.7 -0.675,-1.6 0,-0.95 0.65,-1.625 Q 18.25,29 19.25,29 q 0.95,0 1.625,0.65 0.675,0.65 0.675,1.65 0,0.9 -0.65,1.6 -0.65,0.7 -1.65,0.7 z m -8,0 Q 10.3,33.6 9.625,32.9 8.95,32.2 8.95,31.3 8.95,30.35 9.6,29.675 10.25,29 11.25,29 q 0.95,0 1.625,0.65 0.675,0.65 0.675,1.65 0,0.9 -0.65,1.6 -0.65,0.7 -1.65,0.7 z m 16,0 q -0.9,0 -1.6,-0.7 -0.7,-0.7 -0.7,-1.6 0,-0.95 0.7,-1.625 0.7,-0.675 1.6,-0.675 0.95,0 1.625,0.65 0.675,0.65 0.675,1.65 0,0.9 -0.65,1.6 -0.65,0.7 -1.65,0.7 z M 4.7,42.55 Q 2.75,42.55 1.375,41.175 0,39.8 0,37.85 V 7.75 Q 0,5.8 1.375,4.4 2.75,3 4.7,3 H 7.5 V 0 h 4.1 V 3 H 26.9 V 0 H 31 v 3 h 2.8 q 1.95,0 3.35,1.4 1.4,1.4 1.4,3.35 v 30.1 q 0,1.95 -1.4,3.325 -1.4,1.375 -3.35,1.375 z m 0,-4.7 H 33.8 V 16.8 H 4.7 Z"
     id="path10639"
     style="fill:#4700ff;fill-opacity:1" />
  <path
     d="M 19.25,25.6 Q 18.3,25.6 17.625,24.95 16.95,24.3 16.95,23.3 16.95,22.35 17.6,21.675 18.25,21 19.25,21 q 0.95,0 1.625,0.65 0.675,0.65 0.675,1.65 0,0.95 -0.65,1.625 -0.65,0.675 -1.65,0.675 z m -8,0 Q 10.3,25.6 9.625,24.95 8.95,24.3 8.95,23.3 8.95,22.35 9.6,21.675 10.25,21 11.25,21 q 0.95,0 1.625,0.65 0.675,0.65 0.675,1.65 0,0.95 -0.65,1.625 -0.65,0.675 -1.65,0.675 z m 16,0 q -0.9,0 -1.6,-0.65 -0.7,-0.65 -0.7,-1.65 0,-0.95 0.7,-1.625 0.7,-0.675 1.6,-0.675 0.95,0 1.625,0.65 0.675,0.65 0.675,1.65 0,0.95 -0.65,1.625 -0.65,0.675 -1.65,0.675 z m -8,8 q -0.95,0 -1.625,-0.7 -0.675,-0.7 -0.675,-1.6 0,-0.95 0.65,-1.625 Q 18.25,29 19.25,29 q 0.95,0 1.625,0.65 0.675,0.65 0.675,1.65 0,0.9 -0.65,1.6 -0.65,0.7 -1.65,0.7 z m -8,0 Q 10.3,33.6 9.625,32.9 8.95,32.2 8.95,31.3 8.95,30.35 9.6,29.675 10.25,29 11.25,29 q 0.95,0 1.625,0.65 0.675,0.65 0.675,1.65 0,0.9 -0.65,1.6 -0.65,0.7 -1.65,0.7 z m 16,0 q -0.9,0 -1.6,-0.7 -0.7,-0.7 -0.7,-1.6 0,-0.95 0.7,-1.625 0.7,-0.675 1.6,-0.675 0.95,0 1.625,0.65 0.675,0.65 0.675,1.65 0,0.9 -0.65,1.6 -0.65,0.7 -1.65,0.7 z M 4.7,42.55 Q 2.75,42.55 1.375,41.175 0,39.8 0,37.85 V 7.75 Q 0,5.8 1.375,4.4 2.75,3 4.7,3 H 7.5 V 0 h 4.1 V 3 H 26.9 V 0 H 31 v 3 h 2.8 q 1.95,0 3.35,1.4 1.4,1.4 1.4,3.35 v 30.1 q 0,1.95 -1.4,3.325 -1.4,1.375 -3.35,1.375 z m 0,-4.7 H 33.8 V 16.8 H 4.7 Z"
     id="path11475"
     style="fill:url(#linearGradient11483);fill-opacity:1" />
</svg>
