<?xml version="1.0" encoding="UTF-8" standalone="no"?>
<svg
   height="44"
   width="36"
   version="1.1"
   id="svg10641"
   xml:space="preserve"
   xmlns:xlink="http://www.w3.org/1999/xlink"
   xmlns="http://www.w3.org/2000/svg"
   xmlns:svg="http://www.w3.org/2000/svg"><defs
     id="defs10645"><linearGradient
       id="linearGradient19559"><stop
         style="stop-color:#55d400;stop-opacity:1;"
         offset="0"
         id="stop19555" /><stop
         style="stop-color:#55d400;stop-opacity:0;"
         offset="1"
         id="stop19557" /></linearGradient><linearGradient
       id="linearGradient3695"><stop
         style="stop-color:#55d400;stop-opacity:1;"
         offset="0"
         id="stop3691" /><stop
         style="stop-color:#55d400;stop-opacity:0;"
         offset="1"
         id="stop3693" /></linearGradient><linearGradient
       xlink:href="#linearGradient3695"
       id="linearGradient3697"
       x1="121.05771"
       y1="44.305187"
       x2="132.47925"
       y2="55.691479"
       gradientUnits="userSpaceOnUse"
       gradientTransform="matrix(3.7795276,0,0,3.7795276,-507.07905,-166.44201)" /><linearGradient
       xlink:href="#linearGradient19559"
       id="linearGradient19561"
       x1="0"
       y1="-0.079394445"
       x2="35.965683"
       y2="44.063919"
       gradientUnits="userSpaceOnUse" /></defs><path
     d="M 4,27.8 V 30 Q 4,30.85 3.425,31.425 2.85,32 2,32 1.15,32 0.575,31.425 0,30.85 0,30 V 14.3 L 4.25,1.5 Q 4.4,0.8 5.025,0.4 5.65,0 6.4,0 h 23.2 q 0.75,0 1.375,0.4 0.625,0.4 0.775,1.1 L 36,14.3 V 30 q 0,0.85 -0.575,1.425 Q 34.85,32 34,32 q -0.85,0 -1.45,-0.6 -0.6,-0.6 -0.6,-1.45 V 27.8 Z M 4.15,11.3 h 27.7 L 29.1,3 H 6.9 Z m 4.15,11 q 1.15,0 1.925,-0.8 Q 11,20.7 11,19.6 11,18.45 10.225,17.625 9.45,16.8 8.3,16.8 7.15,16.8 6.325,17.625 5.5,18.45 5.5,19.6 5.5,20.75 6.325,21.525 7.15,22.3 8.3,22.3 Z m 19.45,0 q 1.15,0 1.975,-0.8 0.825,-0.8 0.825,-1.9 0,-1.15 -0.825,-1.975 Q 28.9,16.8 27.75,16.8 q -1.15,0 -1.925,0.825 -0.775,0.825 -0.775,1.975 0,1.15 0.8,1.925 0.8,0.775 1.9,0.775 z M 19.8,44 8.6,38.1 H 16 V 34.3 L 27.4,40 h -7.6 z"
     id="path17707"
     style="fill:#44aa00;fill-opacity:1" /><path
     d="M 4,27.8 V 30 Q 4,30.85 3.425,31.425 2.85,32 2,32 1.15,32 0.575,31.425 0,30.85 0,30 V 14.3 L 4.25,1.5 Q 4.4,0.8 5.025,0.4 5.65,0 6.4,0 h 23.2 q 0.75,0 1.375,0.4 0.625,0.4 0.775,1.1 L 36,14.3 V 30 q 0,0.85 -0.575,1.425 Q 34.85,32 34,32 q -0.85,0 -1.45,-0.6 -0.6,-0.6 -0.6,-1.45 V 27.8 Z M 4.15,11.3 h 27.7 L 29.1,3 H 6.9 Z m 4.15,11 q 1.15,0 1.925,-0.8 Q 11,20.7 11,19.6 11,18.45 10.225,17.625 9.45,16.8 8.3,16.8 7.15,16.8 6.325,17.625 5.5,18.45 5.5,19.6 5.5,20.75 6.325,21.525 7.15,22.3 8.3,22.3 Z m 19.45,0 q 1.15,0 1.975,-0.8 0.825,-0.8 0.825,-1.9 0,-1.15 -0.825,-1.975 Q 28.9,16.8 27.75,16.8 q -1.15,0 -1.925,0.825 -0.775,0.825 -0.775,1.975 0,1.15 0.8,1.925 0.8,0.775 1.9,0.775 z M 19.8,44 8.6,38.1 H 16 V 34.3 L 27.4,40 h -7.6 z"
     id="path19553"
     style="fill:url(#linearGradient19561);fill-opacity:1" /></svg>
