<?xml version="1.0" encoding="UTF-8" standalone="no"?>
<!-- Created with Inkscape (http://www.inkscape.org/) -->

<svg
   width="50.181438mm"
   height="62.466476mm"
   viewBox="0 0 50.181438 62.466476"
   version="1.1"
   id="svg5"
   xml:space="preserve"
   xmlns:xlink="http://www.w3.org/1999/xlink"
   xmlns="http://www.w3.org/2000/svg"
   xmlns:svg="http://www.w3.org/2000/svg"><defs
     id="defs2"><linearGradient
       id="linearGradient7601"><stop
         style="stop-color:#3cc8fc;stop-opacity:1;"
         offset="0"
         id="stop7597" /><stop
         style="stop-color:#3cc8fc;stop-opacity:0;"
         offset="1"
         id="stop7599" /></linearGradient><linearGradient
       xlink:href="#linearGradient7601"
       id="linearGradient7603"
       x1="62.616726"
       y1="46.857075"
       x2="105.32975"
       y2="76.209709"
       gradientUnits="userSpaceOnUse" /></defs><g
     id="layer1"
     transform="translate(-52.890412,-37.681734)"><path
       id="path9793"
       style="fill:#ffffff;fill-opacity:1;stroke-width:1.48907"
       d="m 77.980868,37.681734 c -6.651176,0 -12.495787,2.320391 -17.533811,6.961332 -5.038018,4.640936 -7.556645,10.882519 -7.556645,18.724955 0,5.16211 2.084487,10.796103 6.253882,16.901294 4.169395,6.105183 10.448146,12.731347 18.836574,19.878895 8.38843,-7.147548 14.6677,-13.773712 18.8371,-19.878895 4.169392,-6.105191 6.253882,-11.739184 6.253882,-16.901294 0,-7.842436 -2.51914,-14.084019 -7.557162,-18.724955 -5.03803,-4.640941 -10.88264,-6.961332 -17.53382,-6.961332 z" /><path
       id="path18"
       style="fill:#3c46fc;fill-opacity:1;stroke-width:1.48907"
       d="m 77.980868,37.681734 c -6.651176,0 -12.495787,2.320391 -17.533811,6.961332 -5.038018,4.640936 -7.556645,10.882519 -7.556645,18.724955 0,5.16211 2.084487,10.796103 6.253882,16.901294 4.169395,6.105183 10.448146,12.731347 18.836574,19.878895 8.38843,-7.147548 14.6677,-13.773712 18.8371,-19.878895 4.169392,-6.105191 6.253882,-11.739184 6.253882,-16.901294 0,-7.842436 -2.51914,-14.084019 -7.557162,-18.724955 -5.03803,-4.640941 -10.88264,-6.961332 -17.53382,-6.961332 z m -9.012367,12.626619 h 7.745777 c 0.74867,0 1.39158,0.268658 1.92908,0.806152 0.53751,0.537509 0.80616,1.180413 0.80616,1.929082 v 8.955525 h 2.30373 c 0.42232,0 0.78685,0.153288 1.09399,0.460437 0.30715,0.307135 0.46096,0.672186 0.46096,1.094507 v 6.449736 c 0,0.364729 0.14893,0.657732 0.44648,0.878499 0.29755,0.220752 0.63823,0.330729 1.02216,0.330729 0.40313,0 0.77252,-0.109977 1.10846,-0.330729 0.33594,-0.220767 0.50384,-0.51377 0.50384,-0.878499 V 58.572448 h -0.23047 c -0.38392,0 -0.70077,-0.12996 -0.95033,-0.389123 -0.24955,-0.259148 -0.37414,-0.580356 -0.37414,-0.964283 v -2.966227 h 0.57619 v -1.641243 h 1.29553 v 1.641243 h 1.12293 v -1.641243 h 1.29605 v 1.641243 h 0.57567 v 2.966227 c 0,0.383927 -0.12458,0.705135 -0.37414,0.964283 -0.24956,0.259163 -0.56639,0.389123 -0.95033,0.389123 h -0.23047 v 11.431344 c 0,0.883039 -0.34069,1.60773 -1.02216,2.174027 -0.68148,0.566298 -1.47333,0.849561 -2.37557,0.849561 -0.86384,0 -1.61237,-0.283263 -2.24586,-0.849561 -0.63349,-0.566297 -0.95033,-1.290988 -0.95033,-2.174027 v -6.248198 h -2.10219 V 73.02738 H 66.261689 V 53.043587 c 0,-0.748669 0.263778,-1.391573 0.791683,-1.929082 0.527907,-0.537494 1.166464,-0.806152 1.915129,-0.806152 z m 0,2.735234 v 6.56549 h 7.745777 v -6.56549 z m 4.376477,9.243363 -2.505274,4.031279 h 1.497583 v 3.023588 l 2.533691,-4.031279 h -1.526 z" /><path
       id="path7595"
       style="fill:url(#linearGradient7603);fill-opacity:1;stroke-width:1.48907"
       d="m 77.980868,37.681734 c -6.651176,0 -12.495787,2.320391 -17.533811,6.961332 -5.038018,4.640936 -7.556645,10.882519 -7.556645,18.724955 0,5.16211 2.084487,10.796103 6.253882,16.901294 4.169395,6.105183 10.448146,12.731347 18.836574,19.878895 8.38843,-7.147548 14.6677,-13.773712 18.8371,-19.878895 4.169392,-6.105191 6.253882,-11.739184 6.253882,-16.901294 0,-7.842436 -2.51914,-14.084019 -7.557162,-18.724955 -5.03803,-4.640941 -10.88264,-6.961332 -17.53382,-6.961332 z m -9.012367,12.626619 h 7.745777 c 0.74867,0 1.39158,0.268658 1.92908,0.806152 0.53751,0.537509 0.80616,1.180413 0.80616,1.929082 v 8.955525 h 2.30373 c 0.42232,0 0.78685,0.153288 1.09399,0.460437 0.30715,0.307135 0.46096,0.672186 0.46096,1.094507 v 6.449736 c 0,0.364729 0.14893,0.657732 0.44648,0.878499 0.29755,0.220752 0.63823,0.330729 1.02216,0.330729 0.40313,0 0.77252,-0.109977 1.10846,-0.330729 0.33594,-0.220767 0.50384,-0.51377 0.50384,-0.878499 V 58.572448 h -0.23047 c -0.38392,0 -0.70077,-0.12996 -0.95033,-0.389123 -0.24955,-0.259148 -0.37414,-0.580356 -0.37414,-0.964283 v -2.966227 h 0.57619 v -1.641243 h 1.29553 v 1.641243 h 1.12293 v -1.641243 h 1.29605 v 1.641243 h 0.57567 v 2.966227 c 0,0.383927 -0.12458,0.705135 -0.37414,0.964283 -0.24956,0.259163 -0.56639,0.389123 -0.95033,0.389123 h -0.23047 v 11.431344 c 0,0.883039 -0.34069,1.60773 -1.02216,2.174027 -0.68148,0.566298 -1.47333,0.849561 -2.37557,0.849561 -0.86384,0 -1.61237,-0.283263 -2.24586,-0.849561 -0.63349,-0.566297 -0.95033,-1.290988 -0.95033,-2.174027 v -6.248198 h -2.10219 V 73.02738 H 66.261689 V 53.043587 c 0,-0.748669 0.263778,-1.391573 0.791683,-1.929082 0.527907,-0.537494 1.166464,-0.806152 1.915129,-0.806152 z m 0,2.735234 v 6.56549 h 7.745777 v -6.56549 z m 4.376477,9.243363 -2.505274,4.031279 h 1.497583 v 3.023588 l 2.533691,-4.031279 h -1.526 z" /></g></svg>
