<?xml version="1.0" encoding="UTF-8" standalone="no"?>
<!-- Created with Inkscape (http://www.inkscape.org/) -->

<svg
   width="10.375587mm"
   height="9.9233418mm"
   viewBox="0 0 10.375586 9.9233406"
   version="1.1"
   id="svg5"
   xml:space="preserve"
   xmlns:xlink="http://www.w3.org/1999/xlink"
   xmlns="http://www.w3.org/2000/svg"
   xmlns:svg="http://www.w3.org/2000/svg"><defs
     id="defs2"><linearGradient
       id="linearGradient23014"><stop
         style="stop-color:#ffed00;stop-opacity:1;"
         offset="0"
         id="stop23010" /><stop
         style="stop-color:#ffff00;stop-opacity:0;"
         offset="1"
         id="stop23012" /></linearGradient><clipPath
       clipPathUnits="userSpaceOnUse"
       id="clipPath5662"><path
         d="m -379.1198,-599.2827 h 595.27599 v 841.89 H -379.1198 Z"
         id="path5664"
         style="stroke-width:0.999998" /></clipPath><clipPath
       clipPathUnits="userSpaceOnUse"
       id="clipPath5666"><path
         d="M -354.90339,-565.0061 H 240.3726 v 841.89 h -595.27599 z"
         id="path5668"
         style="stroke-width:0.999998" /></clipPath><clipPath
       clipPathUnits="userSpaceOnUse"
       id="clipPath5670"><path
         d="M -325.726,-648.9882 H 269.55 v 841.89 h -595.276 z"
         id="path5672"
         style="stroke-width:0.999998" /></clipPath><clipPath
       clipPathUnits="userSpaceOnUse"
       id="clipPath5674"><path
         d="m -299.0604,-636.5155 h 595.276 v 841.89 h -595.276 z"
         id="path5676"
         style="stroke-width:0.999998" /></clipPath><clipPath
       clipPathUnits="userSpaceOnUse"
       id="clipPath5734"><path
         d="m -340.34791,-662.0999 h 595.27599 v 841.89 h -595.27599 z"
         id="path5736"
         style="stroke-width:0.999998" /></clipPath><linearGradient
       xlink:href="#linearGradient23014"
       id="linearGradient23016"
       x1="138.02112"
       y1="83.953651"
       x2="148.26645"
       y2="93.853653"
       gradientUnits="userSpaceOnUse" /></defs><g
     id="layer1"
     transform="translate(-137.89085,-83.985403)"><path
       d="m 143.07831,92.306549 -2.48708,1.508125 q -0.18521,0.105833 -0.37042,0.0926 -0.18521,-0.01323 -0.33073,-0.119063 -0.14552,-0.105833 -0.21167,-0.271198 -0.0661,-0.165364 -0.0264,-0.377031 l 0.66145,-2.831042 -2.19604,-1.918229 q -0.15875,-0.132291 -0.20505,-0.310885 -0.0463,-0.178594 0.007,-0.350573 0.0397,-0.171979 0.19182,-0.291042 0.15213,-0.119062 0.3638,-0.132291 l 2.89719,-0.251355 1.12448,-2.68552 q 0.0794,-0.198438 0.24474,-0.291042 0.16536,-0.0926 0.33734,-0.0926 0.17198,0 0.33734,0.0926 0.16537,0.0926 0.24474,0.291042 l 1.12448,2.68552 2.91042,0.251355 q 0.19844,0.01323 0.35057,0.132291 0.15214,0.119063 0.19182,0.291042 0.0529,0.171979 0.007,0.350573 -0.0463,0.178594 -0.20505,0.310885 l -2.19604,1.918229 0.66145,2.831042 q 0.0397,0.211667 -0.0265,0.377031 -0.0661,0.165365 -0.21167,0.271198 -0.14552,0.105834 -0.33073,0.119063 -0.18521,0.01323 -0.37042,-0.0926 z"
       id="path22924"
       style="fill:#ffcc00;stroke-width:0.264583" /><path
       d="m 143.07831,92.306549 -2.48708,1.508125 q -0.18521,0.105833 -0.37042,0.0926 -0.18521,-0.01323 -0.33073,-0.119063 -0.14552,-0.105833 -0.21167,-0.271198 -0.0661,-0.165364 -0.0264,-0.377031 l 0.66145,-2.831042 -2.19604,-1.918229 q -0.15875,-0.132291 -0.20505,-0.310885 -0.0463,-0.178594 0.007,-0.350573 0.0397,-0.171979 0.19182,-0.291042 0.15213,-0.119062 0.3638,-0.132291 l 2.89719,-0.251355 1.12448,-2.68552 q 0.0794,-0.198438 0.24474,-0.291042 0.16536,-0.0926 0.33734,-0.0926 0.17198,0 0.33734,0.0926 0.16537,0.0926 0.24474,0.291042 l 1.12448,2.68552 2.91042,0.251355 q 0.19844,0.01323 0.35057,0.132291 0.15214,0.119063 0.19182,0.291042 0.0529,0.171979 0.007,0.350573 -0.0463,0.178594 -0.20505,0.310885 l -2.19604,1.918229 0.66145,2.831042 q 0.0397,0.211667 -0.0265,0.377031 -0.0661,0.165365 -0.21167,0.271198 -0.14552,0.105834 -0.33073,0.119063 -0.18521,0.01323 -0.37042,-0.0926 z"
       id="path22985"
       style="fill:url(#linearGradient23016);stroke-width:0.264583;fill-opacity:1" /></g></svg>
