<?xml version="1.0" encoding="UTF-8" standalone="no"?>
<!-- Created with Inkscape (http://www.inkscape.org/) -->

<svg
   width="11.509mm"
   height="11.509mm"
   viewBox="0 0 11.509001 11.508999"
   version="1.1"
   id="svg5"
   xml:space="preserve"
   xmlns="http://www.w3.org/2000/svg"
   xmlns:svg="http://www.w3.org/2000/svg"><defs
     id="defs2"><clipPath
       clipPathUnits="userSpaceOnUse"
       id="clipPath5662"><path
         d="m -379.1198,-599.2827 h 595.27599 v 841.89 H -379.1198 Z"
         id="path5664"
         style="stroke-width:0.999998" /></clipPath><clipPath
       clipPathUnits="userSpaceOnUse"
       id="clipPath5666"><path
         d="M -354.90339,-565.0061 H 240.3726 v 841.89 h -595.27599 z"
         id="path5668"
         style="stroke-width:0.999998" /></clipPath><clipPath
       clipPathUnits="userSpaceOnUse"
       id="clipPath5670"><path
         d="M -325.726,-648.9882 H 269.55 v 841.89 h -595.276 z"
         id="path5672"
         style="stroke-width:0.999998" /></clipPath><clipPath
       clipPathUnits="userSpaceOnUse"
       id="clipPath5674"><path
         d="m -299.0604,-636.5155 h 595.276 v 841.89 h -595.276 z"
         id="path5676"
         style="stroke-width:0.999998" /></clipPath><clipPath
       clipPathUnits="userSpaceOnUse"
       id="clipPath5734"><path
         d="m -340.34791,-662.0999 h 595.27599 v 841.89 h -595.27599 z"
         id="path5736"
         style="stroke-width:0.999998" /></clipPath></defs><g
     id="layer1"
     transform="translate(-102.48302,-92.712035)"><path
       d="m 103.81898,101.84659 q -0.27781,0 -0.47625,-0.19183 -0.19844,-0.19182 -0.19844,-0.48286 0,-0.27781 0.19844,-0.47625 0.19844,-0.19844 0.47625,-0.19844 0.29104,0 0.48286,0.19844 0.19183,0.19844 0.19183,0.47625 0,0.29104 -0.19183,0.48286 -0.19182,0.19183 -0.48286,0.19183 z m 0,-2.698754 q -0.27781,0 -0.47625,-0.198438 -0.19844,-0.198437 -0.19844,-0.47625 0,-0.277812 0.19844,-0.47625 0.19844,-0.198437 0.47625,-0.198437 0.29104,0 0.48286,0.198437 0.19183,0.198438 0.19183,0.47625 0,0.277813 -0.19183,0.47625 -0.19182,0.198438 -0.48286,0.198438 z m 0,-2.71198 q -0.27781,0 -0.47625,-0.191823 -0.19844,-0.191822 -0.19844,-0.482864 0,-0.277813 0.19844,-0.47625 0.19844,-0.198438 0.47625,-0.198438 0.29104,0 0.48286,0.198438 0.19183,0.198437 0.19183,0.47625 0,0.291042 -0.19183,0.482864 -0.19182,0.191823 -0.48286,0.191823 z m 2.03729,5.371044 v -1.25677 h 7.47448 v 1.25677 z m 0,-2.711981 v -1.243542 h 7.47448 v 1.243542 z m 0,-2.69875 v -1.256771 h 7.47448 v 1.256771 z"
       id="path2518"
       style="stroke:#ffffff;stroke-width:1.32292;stroke-dasharray:none;stroke-opacity:1" /></g></svg>
