<?xml version="1.0" encoding="UTF-8" standalone="no"?>
<!-- Created with Inkscape (http://www.inkscape.org/) -->

<svg
   width="13.026904mm"
   height="13.026903mm"
   viewBox="0 0 13.026904 13.026903"
   version="1.1"
   id="svg5"
   xml:space="preserve"
   xmlns="http://www.w3.org/2000/svg"
   xmlns:svg="http://www.w3.org/2000/svg"><defs
     id="defs2"><clipPath
       clipPathUnits="userSpaceOnUse"
       id="clipPath5662"><path
         d="m -379.1198,-599.2827 h 595.27599 v 841.89 H -379.1198 Z"
         id="path5664"
         style="stroke-width:0.999998" /></clipPath><clipPath
       clipPathUnits="userSpaceOnUse"
       id="clipPath5666"><path
         d="M -354.90339,-565.0061 H 240.3726 v 841.89 h -595.27599 z"
         id="path5668"
         style="stroke-width:0.999998" /></clipPath><clipPath
       clipPathUnits="userSpaceOnUse"
       id="clipPath5670"><path
         d="M -325.726,-648.9882 H 269.55 v 841.89 h -595.276 z"
         id="path5672"
         style="stroke-width:0.999998" /></clipPath><clipPath
       clipPathUnits="userSpaceOnUse"
       id="clipPath5674"><path
         d="m -299.0604,-636.5155 h 595.276 v 841.89 h -595.276 z"
         id="path5676"
         style="stroke-width:0.999998" /></clipPath><clipPath
       clipPathUnits="userSpaceOnUse"
       id="clipPath5734"><path
         d="m -340.34791,-662.0999 h 595.27599 v 841.89 h -595.27599 z"
         id="path5736"
         style="stroke-width:0.999998" /></clipPath></defs><g
     id="layer1"
     transform="translate(-82.442438,-122.76557)"><path
       d="m 92.916111,132.05245 -0.582083,-0.58208 q 0.3175,-0.46302 0.509323,-1.03849 0.191823,-0.57547 0.191823,-1.21047 0,-1.65365 -1.184011,-2.83766 -1.18401,-1.18401 -2.837656,-1.18401 -0.608542,0 -1.210469,0.19182 -0.601927,0.19183 -1.038489,0.50933 l -0.568854,-0.56886 q 0.47625,-0.39687 1.131093,-0.62177 0.654844,-0.22489 1.289844,-0.29104 v -0.99219 h 0.79375 v 0.99219 q 1.812396,0.18521 3.01625,1.38906 1.203854,1.20386 1.389062,3.01625 h 0.992188 v 0.79375 h -0.992188 q -0.06615,0.62177 -0.277812,1.23693 -0.211667,0.61516 -0.621771,1.19724 z m -4.299479,2.96333 v -0.99218 q -1.812396,-0.18521 -3.01625,-1.38907 -1.203854,-1.20385 -1.389062,-3.01625 h -0.992188 v -0.79375 h 0.992188 q 0.07937,-0.67468 0.284427,-1.26338 0.205052,-0.5887 0.562239,-1.10464 l -1.680104,-1.6801 0.568854,-0.56886 10.080625,10.08063 -0.568854,0.56885 -1.693333,-1.69333 q -0.529167,0.38365 -1.104636,0.58208 -0.575469,0.19844 -1.250156,0.27782 v 0.99218 z m 0.396875,-1.77271 q 0.595313,0 1.137708,-0.16536 0.542396,-0.16536 1.031875,-0.48286 l -5.54302,-5.54303 q -0.304271,0.46303 -0.476251,0.99881 -0.171979,0.53578 -0.171979,1.17078 0,1.65364 1.184011,2.83765 1.18401,1.18401 2.837656,1.18401 z"
       id="path327"
       style="stroke:#ffffff;stroke-width:1.32292;stroke-dasharray:none;stroke-opacity:1" /></g></svg>
