<?xml version="1.0" encoding="UTF-8" standalone="no"?>
<!-- Created with Inkscape (http://www.inkscape.org/) -->

<svg
   width="13.546667mm"
   height="13.546667mm"
   viewBox="0 0 13.546668 13.546666"
   version="1.1"
   id="svg5"
   xml:space="preserve"
   xmlns="http://www.w3.org/2000/svg"
   xmlns:svg="http://www.w3.org/2000/svg"><defs
     id="defs2"><clipPath
       clipPathUnits="userSpaceOnUse"
       id="clipPath5662"><path
         d="m -379.1198,-599.2827 h 595.27599 v 841.89 H -379.1198 Z"
         id="path5664"
         style="stroke-width:0.999998" /></clipPath><clipPath
       clipPathUnits="userSpaceOnUse"
       id="clipPath5666"><path
         d="M -354.90339,-565.0061 H 240.3726 v 841.89 h -595.27599 z"
         id="path5668"
         style="stroke-width:0.999998" /></clipPath><clipPath
       clipPathUnits="userSpaceOnUse"
       id="clipPath5670"><path
         d="M -325.726,-648.9882 H 269.55 v 841.89 h -595.276 z"
         id="path5672"
         style="stroke-width:0.999998" /></clipPath><clipPath
       clipPathUnits="userSpaceOnUse"
       id="clipPath5674"><path
         d="m -299.0604,-636.5155 h 595.276 v 841.89 h -595.276 z"
         id="path5676"
         style="stroke-width:0.999998" /></clipPath><clipPath
       clipPathUnits="userSpaceOnUse"
       id="clipPath5734"><path
         d="m -340.34791,-662.0999 h 595.27599 v 841.89 h -595.27599 z"
         id="path5736"
         style="stroke-width:0.999998" /></clipPath></defs><g
     id="layer1"
     transform="translate(-100.57284,-90.063702)"><path
       d="m 106.80378,102.94891 v -0.99219 q -1.83885,-0.19844 -3.11546,-1.47505 -1.27662,-1.27661 -1.46183,-3.102239 h -0.99219 v -1.084792 h 0.99219 q 0.19844,-1.838854 1.47505,-3.115469 1.27662,-1.276614 3.10224,-1.461823 V 90.72516 h 1.0848 v 0.992187 q 1.82562,0.185209 3.10224,1.461823 1.27661,1.276615 1.47505,3.115469 h 0.99218 v 1.084792 h -0.99218 q -0.18521,1.825629 -1.46183,3.102239 -1.27661,1.27661 -3.11546,1.47505 v 0.99219 z m 0.5424,-2.20927 q 1.61396,0 2.75828,-1.14432 1.14432,-1.14433 1.14432,-2.758285 0,-1.613958 -1.14432,-2.758281 -1.14432,-1.144323 -2.75828,-1.144323 -1.61396,0 -2.75828,1.144323 -1.14432,1.144323 -1.14432,2.758281 0,1.613955 1.14432,2.758285 1.14432,1.14432 2.75828,1.14432 z m 0,-1.91823 q -0.83344,0 -1.40891,-0.57547 -0.57547,-0.575468 -0.57547,-1.408905 0,-0.833437 0.57547,-1.408906 0.57547,-0.575469 1.40891,-0.575469 0.83344,0 1.40891,0.575469 0.57546,0.575469 0.57546,1.408906 0,0.833437 -0.57546,1.408905 -0.57547,0.57547 -1.40891,0.57547 z"
       id="path8071"
       style="stroke:#ffffff;stroke-width:1.32292;stroke-dasharray:none;stroke-opacity:1" /></g></svg>
