<?xml version="1.0" encoding="UTF-8" standalone="no"?>
<!-- Created with Inkscape (http://www.inkscape.org/) -->

<svg
   width="11.615mm"
   height="11.615mm"
   viewBox="0 0 11.615 11.614998"
   version="1.1"
   id="svg5"
   xml:space="preserve"
   xmlns="http://www.w3.org/2000/svg"
   xmlns:svg="http://www.w3.org/2000/svg"><defs
     id="defs2"><clipPath
       clipPathUnits="userSpaceOnUse"
       id="clipPath5662"><path
         d="m -379.1198,-599.2827 h 595.27599 v 841.89 H -379.1198 Z"
         id="path5664"
         style="stroke-width:0.999998" /></clipPath><clipPath
       clipPathUnits="userSpaceOnUse"
       id="clipPath5666"><path
         d="M -354.90339,-565.0061 H 240.3726 v 841.89 h -595.27599 z"
         id="path5668"
         style="stroke-width:0.999998" /></clipPath><clipPath
       clipPathUnits="userSpaceOnUse"
       id="clipPath5670"><path
         d="M -325.726,-648.9882 H 269.55 v 841.89 h -595.276 z"
         id="path5672"
         style="stroke-width:0.999998" /></clipPath><clipPath
       clipPathUnits="userSpaceOnUse"
       id="clipPath5674"><path
         d="m -299.0604,-636.5155 h 595.276 v 841.89 h -595.276 z"
         id="path5676"
         style="stroke-width:0.999998" /></clipPath><clipPath
       clipPathUnits="userSpaceOnUse"
       id="clipPath5734"><path
         d="m -340.34791,-662.0999 h 595.27599 v 841.89 h -595.27599 z"
         id="path5736"
         style="stroke-width:0.999998" /></clipPath></defs><g
     id="layer1"
     transform="translate(-105.67015,-85.048266)"><path
       d="m 113.21728,95.961754 -3.47927,-1.230312 -2.24896,0.912812 q -0.39687,0.185209 -0.75406,-0.0463 -0.35719,-0.23151 -0.35719,-0.681302 v -7.381875 q 0,-0.277812 0.15875,-0.502708 0.15875,-0.224896 0.42333,-0.3175 l 2.77813,-0.965729 3.47927,1.217083 2.23573,-0.912812 q 0.39687,-0.17198 0.76068,0.05292 0.3638,0.224896 0.3638,0.674688 v 7.474479 q 0,0.264583 -0.16537,0.456406 -0.16536,0.191823 -0.41671,0.271198 z m -0.44979,-1.481666 v -6.402917 l -2.59292,-0.873125 v 6.402917 z"
       id="path14290"
       style="stroke:#ffffff;stroke-width:1.32292;stroke-dasharray:none;stroke-opacity:1" /></g></svg>
