<?xml version="1.0" encoding="UTF-8" standalone="no"?>
<!-- Created with Inkscape (http://www.inkscape.org/) -->

<svg
   width="10.375734mm"
   height="9.9233484mm"
   viewBox="0 0 10.375734 9.9233473"
   version="1.1"
   id="svg5"
   xml:space="preserve"
   xmlns="http://www.w3.org/2000/svg"
   xmlns:svg="http://www.w3.org/2000/svg"><defs
     id="defs2"><clipPath
       clipPathUnits="userSpaceOnUse"
       id="clipPath5662"><path
         d="m -379.1198,-599.2827 h 595.27599 v 841.89 H -379.1198 Z"
         id="path5664"
         style="stroke-width:0.999998" /></clipPath><clipPath
       clipPathUnits="userSpaceOnUse"
       id="clipPath5666"><path
         d="M -354.90339,-565.0061 H 240.3726 v 841.89 h -595.27599 z"
         id="path5668"
         style="stroke-width:0.999998" /></clipPath><clipPath
       clipPathUnits="userSpaceOnUse"
       id="clipPath5670"><path
         d="M -325.726,-648.9882 H 269.55 v 841.89 h -595.276 z"
         id="path5672"
         style="stroke-width:0.999998" /></clipPath><clipPath
       clipPathUnits="userSpaceOnUse"
       id="clipPath5674"><path
         d="m -299.0604,-636.5155 h 595.276 v 841.89 h -595.276 z"
         id="path5676"
         style="stroke-width:0.999998" /></clipPath><clipPath
       clipPathUnits="userSpaceOnUse"
       id="clipPath5734"><path
         d="m -340.34791,-662.0999 h 595.27599 v 841.89 h -595.27599 z"
         id="path5736"
         style="stroke-width:0.999998" /></clipPath></defs><g
     id="layer1"
     transform="translate(-124.14706,-75.356284)"><path
       id="path15799"
       style="fill:#b3b3b3;stroke-width:0.264583"
       d="m 129.33504,75.356284 c -0.11466,0 -0.22721,0.03077 -0.33745,0.0925 -0.11023,0.06174 -0.19201,0.158647 -0.24495,0.290939 l -1.12447,2.685624 -2.89699,0.251664 c -0.14111,0.0088 -0.26238,0.05292 -0.3638,0.132292 -0.10141,0.07937 -0.16525,0.176286 -0.19172,0.290938 -0.0355,0.114653 -0.0381,0.231304 -0.007,0.350366 0.0309,0.119063 0.0993,0.222898 0.20515,0.311092 l 2.19625,1.91823 -0.66146,2.830835 c -0.0265,0.141111 -0.0177,0.266995 0.0264,0.377237 0.0441,0.110244 0.11434,0.200746 0.21135,0.271302 0.097,0.07055 0.20726,0.110036 0.33073,0.118856 0.12348,0.0088 0.24705,-0.02195 0.37052,-0.0925 l 2.48719,-1.508435 2.4877,1.508435 c 0.12348,0.07055 0.24705,0.101321 0.37052,0.0925 0.12348,-0.0088 0.23372,-0.0483 0.33073,-0.118856 0.097,-0.07056 0.16781,-0.161058 0.21188,-0.271302 0.0441,-0.110242 0.0528,-0.236126 0.0263,-0.377237 l -0.66146,-2.830835 2.19574,-1.91823 c 0.10583,-0.08819 0.17428,-0.192029 0.20515,-0.311092 0.0306,-0.119062 0.0286,-0.235713 -0.007,-0.350366 -0.0264,-0.114652 -0.0908,-0.211563 -0.19223,-0.290938 -0.10142,-0.07937 -0.21808,-0.123472 -0.35037,-0.132292 l -2.91042,-0.251664 -1.12448,-2.685624 c -0.0529,-0.132295 -0.1347,-0.229205 -0.24494,-0.290939 -0.11024,-0.06173 -0.22228,-0.0925 -0.33693,-0.0925 z m -5.2e-4,0.549837 1.31,3.082499 3.33365,0.290938 -2.52698,2.195732 0.75447,3.254582 -2.87114,-1.719792 -2.87062,1.719792 0.75395,-3.254582 -2.52646,-2.195732 3.33365,-0.290938 z" /></g></svg>
