<?xml version="1.0" encoding="UTF-8" standalone="no"?>
<!-- Created with Inkscape (http://www.inkscape.org/) -->

<svg
   width="44"
   height="44"
   viewBox="0 0 44 44"
   version="1.1"
   id="svg5"
   xml:space="preserve"
   xmlns="http://www.w3.org/2000/svg"
   xmlns:svg="http://www.w3.org/2000/svg"><defs
     id="defs2" /><g
     id="layer1"
     transform="translate(-125.32674,-114.84748)"><g
       id="g303"
       transform="matrix(0.26458333,0,0,0.26458333,125.32674,114.84748)"><g
         id="g3154"
         transform="matrix(7.5590552,0,0,7.5590552,1.6609249,2.7716533e-7)"><path
           id="path2"
           d="m 11,9.0000001 v 4.2597659 h 5.919922 c -0.26,1.369998 -1.038985,2.530547 -2.208984,3.310547 l 3.568359,2.769531 c 2.079998,-1.919998 3.28125,-4.739847 3.28125,-8.089844 0,-0.779999 -0.07117,-1.5300006 -0.201172,-2.2499999 z"
           style="fill:#4285f4;fill-opacity:1" /><path
           id="path4"
           d="m 4.8261719,13.09961 -0.796875,0.611328 -2.8496094,2.21875 v 0.0098 C 2.9896857,19.52945 6.7000044,22 11,22 c 2.969997,0 5.459299,-0.980158 7.279297,-2.660156 L 14.710938,16.570313 C 13.730939,17.230312 12.479999,17.63086 11,17.63086 c -2.859997,0 -5.2901571,-1.931253 -6.1601562,-4.53125 z"
           style="fill:#34a853;fill-opacity:1" /><path
           id="path6"
           d="M 1.1796875,6.0703126 C 0.42968826,7.5503111 0,9.2200019 0,11 c 0,1.779998 0.42968826,3.449689 1.1796875,4.929688 l 2.8496094,-2.21875 0.8105469,-0.621094 C 4.619844,12.429845 4.4902344,11.729999 4.4902344,11 c 0,-0.729999 0.1296096,-1.4298443 0.3496094,-2.0898436 z"
           style="fill:#fbbc05;fill-opacity:1" /><path
           d="m 11,4.38 c 1.62,0 3.06,0.56 4.21,1.64 L 18.36,2.87 C 16.45,1.09 13.97,0 11,0 6.7,0 2.99,2.47 1.18,6.07 L 4.84,8.91 C 5.71,6.31 8.14,4.38 11,4.38 Z"
           fill="#ea4335"
           id="path8" /></g></g></g></svg>
