<?xml version="1.0" encoding="UTF-8" standalone="no"?>
<!-- Created with Inkscape (http://www.inkscape.org/) -->

<svg
   width="44"
   height="44"
   viewBox="0 0 44 44"
   version="1.1"
   id="svg5"
   xml:space="preserve"
   xmlns="http://www.w3.org/2000/svg"
   xmlns:svg="http://www.w3.org/2000/svg"><defs
     id="defs2"><clipPath
       id="clipPath28"
       clipPathUnits="userSpaceOnUse"><path
         id="path26"
         d="M 0,595.276 H 841.89 V 0 H 0 Z" /></clipPath><clipPath
       id="clipPath162"
       clipPathUnits="userSpaceOnUse"><path
         id="path160"
         d="m 344.027,204.89 h 184.645 v 43.456 H 344.027 Z" /></clipPath><clipPath
       id="clipPath230"
       clipPathUnits="userSpaceOnUse"><path
         id="path228"
         d="m 585.443,253.104 h 72.601 v 17.864 h -72.601 z" /></clipPath><clipPath
       id="clipPath282"
       clipPathUnits="userSpaceOnUse"><path
         id="path280"
         d="m 585.443,253.493 h 72.601 v 17.086 h -72.601 z" /></clipPath><clipPath
       id="clipPath298"
       clipPathUnits="userSpaceOnUse"><path
         id="path296"
         d="m 585.443,253.104 h 72.601 v 17.864 h -72.601 z" /></clipPath><clipPath
       id="clipPath314"
       clipPathUnits="userSpaceOnUse"><path
         id="path312"
         d="m 607.172,351.804 h 184.644 v 43.457 H 607.172 Z" /></clipPath><clipPath
       id="clipPath426"
       clipPathUnits="userSpaceOnUse"><path
         id="path424"
         d="M 0,0 H 841.89 V 595.276 H 0 Z" /></clipPath><clipPath
       id="clipPath434"
       clipPathUnits="userSpaceOnUse"><path
         id="path432"
         d="m 321.299,271.075 h 24.228 v -24.228 h -24.228 z" /></clipPath><clipPath
       clipPathUnits="userSpaceOnUse"
       id="clipPath559"><g
         id="g563"
         transform="matrix(0.19671494,0,0,-0.19671494,37.437303,10.194193)"><path
           id="path561"
           d="M -410.11477,164.657 H 528.5277 V -56.256563 h -938.64247 z"
           style="stroke-width:5.0835" /></g></clipPath><clipPath
       clipPathUnits="userSpaceOnUse"
       id="clipPath565"><g
         id="g569"
         transform="matrix(0.19671494,0,0,-0.19671494,50.657003,26.553193)"><path
           id="path567"
           d="M -410.11477,164.657 H 528.5277 V -56.256563 h -938.64247 z"
           style="stroke-width:5.0835" /></g></clipPath><clipPath
       clipPathUnits="userSpaceOnUse"
       id="clipPath571"><g
         id="g575"
         transform="matrix(0.19671494,0,0,-0.19671494,60.046304,4.1851932)"><path
           id="path573"
           d="M -410.11477,164.657 H 528.5277 V -56.256563 h -938.64247 z"
           style="stroke-width:5.0835" /></g></clipPath><clipPath
       clipPathUnits="userSpaceOnUse"
       id="clipPath577"><g
         id="g581"
         transform="matrix(0.19671494,0,0,-0.19671494,45.955603,-9.9057067)"><path
           id="path579"
           d="M -410.11477,164.657 H 528.5277 V -56.256563 h -938.64247 z"
           style="stroke-width:5.0835" /></g></clipPath><clipPath
       clipPathUnits="userSpaceOnUse"
       id="clipPath583"><g
         id="g587"
         transform="matrix(0.19671494,0,0,-0.19671494,-52.476597,9.4511932)"><path
           id="path585"
           d="M -410.11477,164.657 H 528.5277 V -56.256563 h -938.64247 z"
           style="stroke-width:5.0835" /></g></clipPath><clipPath
       clipPathUnits="userSpaceOnUse"
       id="clipPath589"><g
         id="g593"
         transform="matrix(0.19671494,0,0,-0.19671494,-26.720196,-5.6380067)"><path
           id="path591"
           d="M -410.11477,164.657 H 528.5277 V -56.256563 h -938.64247 z"
           style="stroke-width:5.0835" /></g></clipPath><clipPath
       clipPathUnits="userSpaceOnUse"
       id="clipPath595"><g
         id="g599"
         transform="matrix(0.19671494,0,0,-0.19671494,-26.720196,0.89109332)"><path
           id="path597"
           d="M -410.11477,164.657 H 528.5277 V -56.256563 h -938.64247 z"
           style="stroke-width:5.0835" /></g></clipPath><clipPath
       clipPathUnits="userSpaceOnUse"
       id="clipPath601"><g
         id="g605"
         transform="matrix(0.19671494,0,0,-0.19671494,-23.902797,20.775093)"><path
           id="path603"
           d="M -410.11477,164.657 H 528.5277 V -56.256563 h -938.64247 z"
           style="stroke-width:5.0835" /></g></clipPath><clipPath
       clipPathUnits="userSpaceOnUse"
       id="clipPath607"><g
         id="g611"
         transform="matrix(0.19671494,0,0,-0.19671494,-1.4456968,15.663293)"><path
           id="path609"
           d="M -410.11477,164.657 H 528.5277 V -56.256563 h -938.64247 z"
           style="stroke-width:5.0835" /></g></clipPath><clipPath
       clipPathUnits="userSpaceOnUse"
       id="clipPath613"><g
         id="g617"
         transform="matrix(0.19671494,0,0,-0.19671494,-80.729696,11.557393)"><path
           id="path615"
           d="M -410.11477,164.657 H 528.5277 V -56.256563 h -938.64247 z"
           style="stroke-width:5.0835" /></g></clipPath><clipPath
       clipPathUnits="userSpaceOnUse"
       id="clipPath619"><g
         id="g623"
         transform="matrix(0.19671494,0,0,-0.19671494,-93.246798,20.089893)"><path
           id="path621"
           d="M -410.11477,164.657 H 528.5277 V -56.256563 h -938.64247 z"
           style="stroke-width:5.0835" /></g></clipPath><clipPath
       clipPathUnits="userSpaceOnUse"
       id="clipPath625"><g
         id="g629"
         transform="matrix(0.19671494,0,0,-0.19671494,-52.476597,17.554893)"><path
           id="path627"
           d="M -410.11477,164.657 H 528.5277 V -56.256563 h -938.64247 z"
           style="stroke-width:5.0835" /></g></clipPath><clipPath
       clipPathUnits="userSpaceOnUse"
       id="clipPath631"><g
         id="g635"
         transform="matrix(0.19671494,0,0,-0.19671494,-31.749996,17.273693)"><path
           id="path633"
           d="M -410.11477,164.657 H 528.5277 V -56.256563 h -938.64247 z"
           style="stroke-width:5.0835" /></g></clipPath><clipPath
       clipPathUnits="userSpaceOnUse"
       id="clipPath637"><g
         id="g641"
         transform="matrix(0.19671494,0,0,-0.19671494,-19.959896,20.131093)"><path
           id="path639"
           d="M -410.11477,164.657 H 528.5277 V -56.256563 h -938.64247 z"
           style="stroke-width:5.0835" /></g></clipPath><clipPath
       clipPathUnits="userSpaceOnUse"
       id="clipPath643"><g
         id="g647"
         transform="matrix(0.19671494,0,0,-0.19671494,26.204303,17.273693)"><path
           id="path645"
           d="M -410.11477,164.657 H 528.5277 V -56.256563 h -938.64247 z"
           style="stroke-width:5.0835" /></g></clipPath></defs><g
     id="layer1"
     transform="translate(-125.32674,-114.84748)"><g
       id="g303"
       transform="matrix(0.26458333,0,0,0.26458333,125.32674,114.84748)"><g
         id="g3322"
         transform="matrix(5.5107942,0,0,5.5107942,-1.1226422e-5,8.1655098e-8)"><g
           id="g3"
           transform="translate(363.94516,-23.589959)">
</g><g
           id="g5"
           transform="translate(363.94516,-23.589959)">
</g><g
           id="g7"
           transform="translate(363.94516,-23.589959)">
</g><g
           id="g9"
           transform="translate(363.94516,-23.589959)">
</g><g
           id="g11"
           transform="translate(363.94516,-23.589959)">
</g><g
           id="g13"
           transform="translate(363.94516,-23.589959)">
</g><g
           id="g788"
           transform="translate(2.3003236)"><path
             fill="#179bd7"
             d="m 23.047989,7.667 v 0 0 c -0.028,0.179 -0.06,0.362 -0.096,0.55 -1.237,6.351 -5.469,8.545 -10.874,8.545 H 9.3259888 c -0.661,0 -1.218,0.48 -1.321,1.132 v 0 0 l -1.409,8.935996 -0.399,2.533 c -0.067,0.428 0.263,0.814 0.695,0.814 h 4.8810002 c 0.578,0 1.069,-0.42 1.16,-0.99 l 0.048,-0.248 0.919,-5.832 0.059,-0.32 c 0.09,-0.572 0.582,-0.992 1.16,-0.992 h 0.73 c 4.729,0 8.431,-1.919996 9.513,-7.475996 0.452,-2.321 0.218,-4.259 -0.978,-5.622 -0.362,-0.411 -0.811,-0.752 -1.336,-1.03 z"
             id="path752" /><path
             fill="#222d65"
             d="m 21.753989,7.151 c -0.189,-0.055 -0.384,-0.105 -0.584,-0.15 -0.201,-0.044 -0.407,-0.083 -0.619,-0.117 -0.742,-0.12 -1.555,-0.177 -2.426,-0.177 h -7.352 c -0.181,0 -0.353,0.041 -0.507,0.115 C 9.9269888,6.985 9.6749888,7.306 9.6139888,7.699 l -1.564,9.906 -0.045,0.289 c 0.103,-0.652 0.66,-1.132 1.321,-1.132 h 2.7520002 c 5.405,0 9.637,-2.195 10.874,-8.545 0.037,-0.188 0.068,-0.371 0.096,-0.55 -0.313,-0.166 -0.652,-0.308 -1.017,-0.429 -0.09,-0.03 -0.183,-0.059 -0.277,-0.087 z"
             id="path754" /><path
             fill="#253b80"
             d="m 9.6139888,7.699 c 0.061,-0.393 0.313,-0.714 0.6520002,-0.876 0.155,-0.074 0.326,-0.115 0.507,-0.115 h 7.352 c 0.871,0 1.684,0.057 2.426,0.177 0.212,0.034 0.418,0.073 0.619,0.117 0.2,0.045 0.395,0.095 0.584,0.15 0.094,0.028 0.187,0.057 0.278,0.086 0.365,0.121 0.704,0.264 1.017,0.429 0.368,-2.347 -0.003,-3.945 -1.272,-5.392 C 20.377989,0.682 17.852989,0 14.621989,0 H 5.2419888 c -0.66,0 -1.223,0.48 -1.325,1.133 L 0.00998882,25.897996 c -0.077,0.49 0.301,0.932 0.795,0.932 H 6.5959888 l 1.454,-9.224996 z"
             id="path756" /></g></g></g></g></svg>
