<?xml version="1.0" encoding="UTF-8" standalone="no"?>
<!-- Created with Inkscape (http://www.inkscape.org/) -->

<svg
   width="58.449001mm"
   height="58.449001mm"
   viewBox="0 0 58.449001 58.449001"
   version="1.1"
   id="svg5"
   xml:space="preserve"
   xmlns="http://www.w3.org/2000/svg"
   xmlns:svg="http://www.w3.org/2000/svg"><defs
     id="defs2"><clipPath
       id="clipPath28"
       clipPathUnits="userSpaceOnUse"><path
         id="path26"
         d="M 0,595.276 H 841.89 V 0 H 0 Z" /></clipPath><clipPath
       id="clipPath94"
       clipPathUnits="userSpaceOnUse"><path
         id="path92"
         d="m 344.027,351.804 h 184.645 v 43.457 H 344.027 Z" /></clipPath><clipPath
       id="clipPath162"
       clipPathUnits="userSpaceOnUse"><path
         id="path160"
         d="m 344.027,204.89 h 184.645 v 43.456 H 344.027 Z" /></clipPath><clipPath
       id="clipPath230"
       clipPathUnits="userSpaceOnUse"><path
         id="path228"
         d="m 585.443,253.104 h 72.601 v 17.864 h -72.601 z" /></clipPath><clipPath
       id="clipPath282"
       clipPathUnits="userSpaceOnUse"><path
         id="path280"
         d="m 585.443,253.493 h 72.601 v 17.086 h -72.601 z" /></clipPath><clipPath
       id="clipPath298"
       clipPathUnits="userSpaceOnUse"><path
         id="path296"
         d="m 585.443,253.104 h 72.601 v 17.864 h -72.601 z" /></clipPath><clipPath
       id="clipPath314"
       clipPathUnits="userSpaceOnUse"><path
         id="path312"
         d="m 607.172,351.804 h 184.644 v 43.457 H 607.172 Z" /></clipPath><clipPath
       id="clipPath426"
       clipPathUnits="userSpaceOnUse"><path
         id="path424"
         d="M 0,0 H 841.89 V 595.276 H 0 Z" /></clipPath><clipPath
       id="clipPath434"
       clipPathUnits="userSpaceOnUse"><path
         id="path432"
         d="m 321.299,271.075 h 24.228 v -24.228 h -24.228 z" /></clipPath></defs><g
     id="layer1"
     transform="translate(10.237398,-110.41755)"><g
       clip-path="url(#clipPath94)"
       id="g90"
       transform="matrix(1.3450088,0,0,-1.3450088,-472.95674,642.04613)"><g
         transform="translate(378.75631,394.10059)"
         id="g140"><path
           id="path142"
           style="fill:#ef373f;fill-opacity:1;fill-rule:nonzero;stroke:none"
           d="m 0,0 c 0.428,0.428 0.125,1.16 -0.481,1.16 h -10.083 l 5.863,-5.861 z" /></g><g
         transform="translate(364.66561,380.00969)"
         id="g144"><path
           id="path146"
           style="fill:#ef373f;fill-opacity:1;fill-rule:nonzero;stroke:none"
           d="m 0,0 -7.211,7.211 -6.489,-6.49 -6.73,-6.73 c -0.266,-0.265 -0.266,-0.696 0,-0.961 l 6.73,-6.731 6.489,-6.489 7.211,7.211 -6.009,6.009 -0.481,0.48 0.481,0.481 z" /></g><g
         transform="translate(374.05491,357.64169)"
         id="g148"><path
           id="path150"
           style="fill:#ef373f;fill-opacity:1;fill-rule:nonzero;stroke:none"
           d="M 0,0 -5.838,-5.838 H 4.197 c 0.605,0 0.909,0.732 0.481,1.16 z" /></g><g
         transform="translate(387.27461,374.00069)"
         id="g152"><path
           id="path154"
           style="fill:#ef373f;fill-opacity:1;fill-rule:nonzero;stroke:none"
           d="m 0,0 -6.73,6.73 -7.579,7.579 -6.752,6.752 c -0.122,0.122 -0.287,0.189 -0.459,0.195 -0.007,0 -0.014,0.004 -0.022,0.004 h -12.499 c -0.605,0 -0.908,-0.732 -0.48,-1.16 l 5.791,-5.791 7.21,-7.211 7.099,-7.098 0.48,-0.481 -0.48,-0.48 -7.099,-7.098 -7.21,-7.211 -5.767,-5.767 c -0.428,-0.428 -0.125,-1.16 0.48,-1.16 h 12.495 0.005 c 0.18,0 0.353,0.072 0.48,0.199 l 6.728,6.728 7.579,7.578 L 0,-0.961 C 0.266,-0.696 0.266,-0.266 0,0" /></g></g></g></svg>
