<?xml version="1.0" encoding="UTF-8" standalone="no"?>
<!-- Created with Inkscape (http://www.inkscape.org/) -->

<svg
   width="10.583mm"
   height="10.583mm"
   viewBox="0 0 10.583 10.583"
   version="1.1"
   id="svg5"
   xml:space="preserve"
   xmlns:xlink="http://www.w3.org/1999/xlink"
   xmlns="http://www.w3.org/2000/svg"
   xmlns:svg="http://www.w3.org/2000/svg"><defs
     id="defs2"><linearGradient
       id="linearGradient504"><stop
         style="stop-color:#999999;stop-opacity:1;"
         offset="0"
         id="stop500" /><stop
         style="stop-color:#999999;stop-opacity:0;"
         offset="1"
         id="stop502" /></linearGradient><linearGradient
       xlink:href="#linearGradient504"
       id="linearGradient506"
       x1="3.8903279"
       y1="7.8600502"
       x2="44.063919"
       y2="39.935406"
       gradientUnits="userSpaceOnUse"
       gradientTransform="translate(-4,-8)" /></defs><g
     id="layer1"
     transform="translate(-90.234649,-116.65088)"><g
       id="g148"
       transform="matrix(0.26458333,0,0,0.26458333,90.234649,117.70905)"><path
         d="M 3,32 Q 1.8,32 0.9,31.1 0,30.2 0,29 V 3 Q 0,1.8 0.9,0.9 1.8,0 3,0 H 37 Q 38.2,0 39.1,0.9 40,1.8 40,3 v 26 q 0,1.2 -0.9,2.1 Q 38.2,32 37,32 Z M 3,14.9 H 37 V 8.45 H 3 Z"
         id="path313"
         style="fill:#666666" /><path
         d="M 3,32 Q 1.8,32 0.9,31.1 0,30.2 0,29 V 3 Q 0,1.8 0.9,0.9 1.8,0 3,0 H 37 Q 38.2,0 39.1,0.9 40,1.8 40,3 v 26 q 0,1.2 -0.9,2.1 Q 38.2,32 37,32 Z M 3,14.9 H 37 V 8.45 H 3 Z"
         id="path438"
         style="fill:url(#linearGradient506);fill-opacity:1" /></g></g></svg>
