<?xml version="1.0" encoding="UTF-8" standalone="no"?>
<!-- Generator: Adobe Illustrator 21.0.0, SVG Export Plug-In . SVG Version: 6.00 Build 0)  -->

<svg
   version="1.1"
   id="Layer_1"
   x="0px"
   y="0px"
   viewBox="0 0 169.11 169.11"
   xml:space="preserve"
   width="169.11"
   height="169.11"
   xmlns="http://www.w3.org/2000/svg"
   xmlns:svg="http://www.w3.org/2000/svg"><defs
   id="defs18" />
<path
   id="XMLID_34_"
   d="m 109.32567,27.099884 c -6,7.1 -15.599999,12.7 -25.199999,11.9 -1.2,-9.6 3.5,-19.8 9,-26.1 6,-7.3 16.499999,-12.50000004 25.000009,-12.90000004026 C 119.12568,9.999884 115.22567,19.799884 109.32567,27.099884 m 8.70001,13.8 c -13.90001,-0.8 -25.800009,7.9 -32.400009,7.9 -6.7,0 -16.8,-7.5 -27.8,-7.3 -14.3,0.2 -27.6,8.3 -34.9,21.2 -14.9999996,25.8 -3.9,63.999996 10.6,84.999996 7.1,10.4 15.6,21.8 26.8,21.4 10.6,-0.4 14.8,-6.9 27.6,-6.9 12.899999,0 16.599999,6.9 27.799999,6.7 11.60001,-0.2 18.90001,-10.4 26.00001,-20.8 8.1,-11.8 11.4,-23.3 11.6,-23.9 -0.2,-0.2 -22.4,-8.7 -22.6,-34.299996 -0.2,-21.4 17.5,-31.6 18.3,-32.2 -10,-14.8 -25.6,-16.4 -31,-16.8" />
<g
   id="g3"
   transform="translate(-0.05865393)">
</g>
<g
   id="g5"
   transform="translate(-0.05865393)">
</g>
<g
   id="g7"
   transform="translate(-0.05865393)">
</g>
<g
   id="g9"
   transform="translate(-0.05865393)">
</g>
<g
   id="g11"
   transform="translate(-0.05865393)">
</g>
<g
   id="g13"
   transform="translate(-0.05865393)">
</g>
</svg>
