<?xml version="1.0" encoding="UTF-8" standalone="no"?>
<!-- Created with Inkscape (http://www.inkscape.org/) -->

<svg
   width="11.641663mm"
   height="8.46667mm"
   viewBox="0 0 11.641663 8.46667"
   version="1.1"
   id="svg5"
   xml:space="preserve"
   xmlns:xlink="http://www.w3.org/1999/xlink"
   xmlns="http://www.w3.org/2000/svg"
   xmlns:svg="http://www.w3.org/2000/svg"><defs
     id="defs2"><linearGradient
       id="linearGradient1645"><stop
         style="stop-color:#9fcdcd;stop-opacity:1;"
         offset="0"
         id="stop1641" /><stop
         style="stop-color:#9fcdcd;stop-opacity:0;"
         offset="1"
         id="stop1643" /></linearGradient><linearGradient
       xlink:href="#linearGradient1645"
       id="linearGradient1647"
       x1="95.263374"
       y1="106.57719"
       x2="106.90022"
       y2="115.0443"
       gradientUnits="userSpaceOnUse" /></defs><g
     id="layer1"
     transform="translate(-95.263377,-106.57719)"><path
       d="m 101.87796,111.60428 q 0.66146,0 1.12448,-0.46302 0.46302,-0.46303 0.46302,-1.12448 0,-0.66146 -0.46302,-1.12448 -0.46302,-0.46302 -1.12448,-0.46302 -0.66146,0 -1.12448,0.46302 -0.46302,0.46302 -0.46302,1.12448 0,0.66145 0.46302,1.12448 0.46302,0.46302 1.12448,0.46302 z m -4.233333,1.85208 q -0.330729,0 -0.562239,-0.23151 -0.231511,-0.23151 -0.231511,-0.56224 v -5.29167 q 0,-0.33073 0.231511,-0.56224 0.23151,-0.23151 0.562239,-0.23151 h 8.466663 q 0.33073,0 0.56224,0.23151 0.23151,0.23151 0.23151,0.56224 v 5.29167 q 0,0.33073 -0.23151,0.56224 -0.23151,0.23151 -0.56224,0.23151 z m -1.5875,1.5875 q -0.330729,0 -0.562239,-0.23151 -0.231511,-0.23151 -0.231511,-0.56224 v -5.68854 q 0,-0.17198 0.112448,-0.28443 0.112448,-0.11245 0.284427,-0.11245 0.171979,0 0.284427,0.11245 0.112448,0.11245 0.112448,0.28443 v 5.68854 h 8.863543 q 0.17198,0 0.28443,0.11245 0.11244,0.11245 0.11244,0.28442 0,0.17198 -0.11244,0.28443 -0.11245,0.11245 -0.28443,0.11245 z m 1.5875,-6.35 q 0.555625,0 0.939271,-0.38365 0.383646,-0.38364 0.383646,-0.93927 h -1.322917 z m 8.466663,0 v -1.32292 h -1.32291 q 0,0.55563 0.38364,0.93927 0.38365,0.38365 0.93927,0.38365 z m -8.466663,3.96875 h 1.322917 q 0,-0.55563 -0.383646,-0.93927 -0.383646,-0.38365 -0.939271,-0.38365 z m 7.143753,0 h 1.32291 v -1.32292 q -0.55562,0 -0.93927,0.38365 -0.38364,0.38364 -0.38364,0.93927 z"
       id="path132"
       style="stroke-width:0.264583;fill:#c58293;fill-opacity:1" /><path
       d="m 101.87796,111.60428 q 0.66146,0 1.12448,-0.46302 0.46302,-0.46303 0.46302,-1.12448 0,-0.66146 -0.46302,-1.12448 -0.46302,-0.46302 -1.12448,-0.46302 -0.66146,0 -1.12448,0.46302 -0.46302,0.46302 -0.46302,1.12448 0,0.66145 0.46302,1.12448 0.46302,0.46302 1.12448,0.46302 z m -4.233333,1.85208 q -0.330729,0 -0.562239,-0.23151 -0.231511,-0.23151 -0.231511,-0.56224 v -5.29167 q 0,-0.33073 0.231511,-0.56224 0.23151,-0.23151 0.562239,-0.23151 h 8.466663 q 0.33073,0 0.56224,0.23151 0.23151,0.23151 0.23151,0.56224 v 5.29167 q 0,0.33073 -0.23151,0.56224 -0.23151,0.23151 -0.56224,0.23151 z m -1.5875,1.5875 q -0.330729,0 -0.562239,-0.23151 -0.231511,-0.23151 -0.231511,-0.56224 v -5.68854 q 0,-0.17198 0.112448,-0.28443 0.112448,-0.11245 0.284427,-0.11245 0.171979,0 0.284427,0.11245 0.112448,0.11245 0.112448,0.28443 v 5.68854 h 8.863543 q 0.17198,0 0.28443,0.11245 0.11244,0.11245 0.11244,0.28442 0,0.17198 -0.11244,0.28443 -0.11245,0.11245 -0.28443,0.11245 z m 1.5875,-6.35 q 0.555625,0 0.939271,-0.38365 0.383646,-0.38364 0.383646,-0.93927 h -1.322917 z m 8.466663,0 v -1.32292 h -1.32291 q 0,0.55563 0.38364,0.93927 0.38365,0.38365 0.93927,0.38365 z m -8.466663,3.96875 h 1.322917 q 0,-0.55563 -0.383646,-0.93927 -0.383646,-0.38365 -0.939271,-0.38365 z m 7.143753,0 h 1.32291 v -1.32292 q -0.55562,0 -0.93927,0.38365 -0.38364,0.38364 -0.38364,0.93927 z"
       id="path1579"
       style="stroke-width:0.264583;fill:url(#linearGradient1647);fill-opacity:1" /></g></svg>
