<?xml version="1.0" encoding="UTF-8" standalone="no"?>
<!-- Created with Inkscape (http://www.inkscape.org/) -->

<svg
   width="102.75449mm"
   height="102.75449mm"
   viewBox="0 0 102.75449 102.75449"
   version="1.1"
   id="svg5"
   xml:space="preserve"
   inkscape:version="1.2 (dc2aedaf03, 2022-05-15)"
   sodipodi:docname="position.svg"
   xmlns:inkscape="http://www.inkscape.org/namespaces/inkscape"
   xmlns:sodipodi="http://sodipodi.sourceforge.net/DTD/sodipodi-0.dtd"
   xmlns="http://www.w3.org/2000/svg"
   xmlns:svg="http://www.w3.org/2000/svg"><sodipodi:namedview
     id="namedview7"
     pagecolor="#505050"
     bordercolor="#ffffff"
     borderopacity="1"
     inkscape:showpageshadow="0"
     inkscape:pageopacity="0"
     inkscape:pagecheckerboard="1"
     inkscape:deskcolor="#505050"
     inkscape:document-units="mm"
     showgrid="false"
     inkscape:zoom="0.76167929"
     inkscape:cx="189.71239"
     inkscape:cy="262.5777"
     inkscape:window-width="1920"
     inkscape:window-height="1009"
     inkscape:window-x="-8"
     inkscape:window-y="-8"
     inkscape:window-maximized="1"
     inkscape:current-layer="layer1" /><defs
     id="defs2" /><g
     inkscape:label="Layer 1"
     inkscape:groupmode="layer"
     id="layer1"
     transform="translate(-53.622752,-97.122752)"><circle
       style="fill:#3668ed;fill-opacity:0.30000001;fill-rule:evenodd;stroke:#3668ed;stroke-width:0.52916667;stroke-dasharray:none;stroke-opacity:1"
       id="path10290"
       cx="105"
       cy="148.5"
       r="50.71579" /><path
       d="m 104.98153,164.20269 q -3.24754,0 -6.107608,-1.21783 -2.86006,-1.21784 -5.00052,-3.35827 -2.14044,-2.14044 -3.35826,-5.00051 -1.217833,-2.86007 -1.217833,-6.10763 0,-3.28446 1.217833,-6.14453 1.21782,-2.86007 3.35826,-4.98205 2.14046,-2.12199 5.00052,-3.35828 2.860068,-1.23628 6.107608,-1.23628 3.28448,0 6.14455,1.23628 2.86006,1.23629 4.98206,3.35828 2.12196,2.12198 3.35826,4.98205 1.23629,2.86007 1.23629,6.14453 0,3.24756 -1.23629,6.10763 -1.2363,2.86007 -3.35826,5.00051 -2.122,2.14043 -4.98206,3.35827 -2.86007,1.21783 -6.14455,1.21783 z"
       id="path2502"
       style="fill:#3668ed;fill-opacity:1;stroke:#ffffff;stroke-width:2.64583333;stroke-dasharray:none;stroke-opacity:1" /></g></svg>
