<?xml version="1.0" encoding="UTF-8" standalone="no"?>
<!-- Created with Inkscape (http://www.inkscape.org/) -->

<svg
   width="11.50938mm"
   height="11.509374mm"
   viewBox="0 0 11.50938 11.509374"
   version="1.1"
   id="svg5"
   xml:space="preserve"
   xmlns:xlink="http://www.w3.org/1999/xlink"
   xmlns="http://www.w3.org/2000/svg"
   xmlns:svg="http://www.w3.org/2000/svg"><defs
     id="defs2"><linearGradient
       id="linearGradient3695"><stop
         style="stop-color:#55d400;stop-opacity:1;"
         offset="0"
         id="stop3691" /><stop
         style="stop-color:#55d400;stop-opacity:0;"
         offset="1"
         id="stop3693" /></linearGradient><linearGradient
       xlink:href="#linearGradient3695"
       id="linearGradient3697"
       x1="121.05771"
       y1="44.305187"
       x2="132.47925"
       y2="55.691479"
       gradientUnits="userSpaceOnUse"
       gradientTransform="translate(-7.257316,48.136394)" /></defs><g
     id="layer1"
     transform="translate(-113.8004,-92.40633)"><path
       d="m 120.90447,103.54529 q -0.37041,0.37041 -0.89295,0.37041 -0.52256,0 -0.89297,-0.37041 l -4.96094,-4.960939 q -0.19844,-0.198438 -0.27781,-0.423334 -0.0794,-0.224895 -0.0794,-0.47625 v -4.021666 q 0,-0.529167 0.35719,-0.892969 0.35719,-0.363802 0.88635,-0.363802 h 4.02167 q 0.25135,0 0.48948,0.08599 0.23812,0.08599 0.43656,0.284427 l 4.93448,4.92125 q 0.38365,0.383645 0.38365,0.912812 0,0.529167 -0.38365,0.912813 z m -4.47145,-7.818439 q 0.27781,0 0.48286,-0.205052 0.20505,-0.205052 0.20505,-0.482865 0,-0.277812 -0.20505,-0.482864 -0.20505,-0.205053 -0.48286,-0.205053 -0.27782,0 -0.48287,0.205053 -0.20505,0.205052 -0.20505,0.482864 0,0.277813 0.20505,0.482865 0.20505,0.205052 0.48287,0.205052 z"
       id="path2660"
       style="fill:#44aa00;stroke-width:0.264583" /><path
       d="m 120.90447,103.54529 q -0.37041,0.37041 -0.89295,0.37041 -0.52256,0 -0.89297,-0.37041 l -4.96094,-4.960939 q -0.19844,-0.198438 -0.27781,-0.423334 -0.0794,-0.224895 -0.0794,-0.47625 v -4.021666 q 0,-0.529167 0.35719,-0.892969 0.35719,-0.363802 0.88635,-0.363802 h 4.02167 q 0.25135,0 0.48948,0.08599 0.23812,0.08599 0.43656,0.284427 l 4.93448,4.92125 q 0.38365,0.383645 0.38365,0.912812 0,0.529167 -0.38365,0.912813 z m -4.47145,-7.818439 q 0.27781,0 0.48286,-0.205052 0.20505,-0.205052 0.20505,-0.482865 0,-0.277812 -0.20505,-0.482864 -0.20505,-0.205053 -0.48286,-0.205053 -0.27782,0 -0.48287,0.205053 -0.20505,0.205052 -0.20505,0.482864 0,0.277813 0.20505,0.482865 0.20505,0.205052 0.48287,0.205052 z"
       id="path3689"
       style="fill:url(#linearGradient3697);fill-opacity:1;stroke-width:0.264583" /><path
       d="m 120.66806,101.28548 q -0.78481,0 -1.4556,-0.4293 -0.67077,-0.42929 -0.91895,-1.24764 h -0.91895 v -0.630528 h 0.81833 q -0.0202,-0.127449 -0.0202,-0.254896 0,-0.127447 0.0202,-0.295142 h -0.81833 v -0.637236 h 0.91895 q 0.2616,-0.771393 0.92567,-1.224166 0.66407,-0.452773 1.44888,-0.452773 0.5299,0 0.97934,0.191171 0.4494,0.19117 0.83846,0.539974 l -0.45612,0.44942 q -0.29515,-0.261603 -0.6406,-0.402467 -0.34546,-0.140862 -0.72108,-0.140862 -0.53663,0 -1.00616,0.291788 -0.46955,0.291788 -0.65737,0.747915 h 1.8245 v 0.637236 h -2.0056 q -0.0202,0.127448 -0.0234,0.248188 -0.003,0.12074 0.0234,0.30185 h 2.0056 v 0.630528 h -1.84463 q 0.20795,0.49637 0.6775,0.77139 0.46953,0.27502 1.00616,0.27502 0.36221,0 0.71102,-0.13415 0.34881,-0.13416 0.65737,-0.40918 l 0.44941,0.44271 q -0.34881,0.33539 -0.815,0.53327 -0.46619,0.19788 -1.0028,0.19788 z"
       id="path3078"
       style="fill:#ffffff;stroke-width:0.134155" /></g></svg>
