<?xml version="1.0" encoding="UTF-8" standalone="no"?>
<!-- Created with Inkscape (http://www.inkscape.org/) -->

<svg
   width="11.50938mm"
   height="11.509374mm"
   viewBox="0 0 11.50938 11.509374"
   version="1.1"
   id="svg5"
   xml:space="preserve"
   xmlns:xlink="http://www.w3.org/1999/xlink"
   xmlns="http://www.w3.org/2000/svg"
   xmlns:svg="http://www.w3.org/2000/svg"><defs
     id="defs2"><linearGradient
       id="linearGradient3695"><stop
         style="stop-color:#55d400;stop-opacity:1;"
         offset="0"
         id="stop3691" /><stop
         style="stop-color:#55d400;stop-opacity:0;"
         offset="1"
         id="stop3693" /></linearGradient><linearGradient
       xlink:href="#linearGradient3695"
       id="linearGradient3697"
       x1="121.05771"
       y1="44.305187"
       x2="132.47925"
       y2="55.691479"
       gradientUnits="userSpaceOnUse"
       gradientTransform="translate(40.564719,6.6067329)" /><linearGradient
       id="linearGradient2960"><stop
         style="stop-color:#ff8080;stop-opacity:1;"
         offset="0"
         id="stop2956" /><stop
         style="stop-color:#ff8080;stop-opacity:0;"
         offset="1"
         id="stop2958" /></linearGradient><linearGradient
       xlink:href="#linearGradient2960"
       id="linearGradient2962"
       x1="121.05771"
       y1="44.269936"
       x2="132.62025"
       y2="55.902988"
       gradientUnits="userSpaceOnUse"
       gradientTransform="translate(41.826766,4.5651823)" /></defs><g
     id="layer1"
     transform="translate(-162.88448,-48.835118)"><path
       d="m 169.98856,59.974076 q -0.37041,0.370416 -0.89296,0.370416 -0.52256,0 -0.89297,-0.370416 l -4.96094,-4.960937 q -0.19844,-0.198438 -0.27781,-0.423334 -0.0794,-0.224895 -0.0794,-0.47625 v -4.021666 q 0,-0.529167 0.35719,-0.892969 0.35719,-0.363802 0.88635,-0.363802 h 4.02167 q 0.25135,0 0.48948,0.08599 0.23812,0.08599 0.43656,0.284427 l 4.93448,4.92125 q 0.38365,0.383645 0.38365,0.912812 0,0.529167 -0.38365,0.912813 z m -4.47145,-7.818437 q 0.27781,0 0.48286,-0.205052 0.20505,-0.205052 0.20505,-0.482865 0,-0.277812 -0.20505,-0.482864 -0.20505,-0.205053 -0.48286,-0.205053 -0.27782,0 -0.48287,0.205053 -0.20505,0.205052 -0.20505,0.482864 0,0.277813 0.20505,0.482865 0.20505,0.205052 0.48287,0.205052 z"
       id="path2660"
       style="fill:#ff0000;stroke-width:0.264583" /><path
       d="m 169.98856,59.974076 q -0.37041,0.370416 -0.89296,0.370416 -0.52256,0 -0.89297,-0.370416 l -4.96094,-4.960937 q -0.19844,-0.198438 -0.27781,-0.423334 -0.0794,-0.224895 -0.0794,-0.47625 v -4.021666 q 0,-0.529167 0.35719,-0.892969 0.35719,-0.363802 0.88635,-0.363802 h 4.02167 q 0.25135,0 0.48948,0.08599 0.23812,0.08599 0.43656,0.284427 l 4.93448,4.92125 q 0.38365,0.383645 0.38365,0.912812 0,0.529167 -0.38365,0.912813 z m -4.47145,-7.818437 q 0.27781,0 0.48286,-0.205052 0.20505,-0.205052 0.20505,-0.482865 0,-0.277812 -0.20505,-0.482864 -0.20505,-0.205053 -0.48286,-0.205053 -0.27782,0 -0.48287,0.205053 -0.20505,0.205052 -0.20505,0.482864 0,0.277813 0.20505,0.482865 0.20505,0.205052 0.48287,0.205052 z"
       id="path2894"
       style="fill:url(#linearGradient2962);fill-opacity:1;stroke-width:0.264583" /><path
       id="rect2838"
       style="fill:#ffffff;stroke-width:0.151549;stroke-linecap:round;stroke-linejoin:round"
       d="m 167.76178,52.989553 c -0.17987,0 -0.33154,0.062 -0.45573,0.186212 -0.12415,0.124209 -0.18672,0.276355 -0.18672,0.456244 0,0.179887 0.0626,0.332035 0.18672,0.456245 0.12415,0.124209 0.27586,0.18621 0.45573,0.18621 0.17991,0 0.33205,-0.062 0.45625,-0.18621 0.12415,-0.12421 0.18622,-0.276358 0.18622,-0.456245 0,-0.179889 -0.062,-0.332036 -0.18622,-0.456244 -0.12415,-0.12421 -0.27634,-0.186212 -0.45625,-0.186212 z m 2.59593,0.07679 -3.16107,3.161081 0.53956,0.539562 3.16108,-3.160579 z m -0.0257,2.493028 c -0.17989,0 -0.33205,0.062 -0.45626,0.186212 -0.12415,0.12421 -0.18621,0.276357 -0.18621,0.456242 0,0.179889 0.062,0.332038 0.18621,0.456246 0.12415,0.124209 0.27637,0.18621 0.45626,0.18621 0.17989,0 0.33153,-0.062 0.45574,-0.18621 0.12415,-0.12421 0.18621,-0.276357 0.18621,-0.456246 0,-0.179885 -0.062,-0.332035 -0.18621,-0.456242 -0.12415,-0.124209 -0.27585,-0.186212 -0.45574,-0.186212 z" /></g></svg>
