<?xml version="1.0" encoding="UTF-8" standalone="no"?>
<!-- Created with Inkscape (http://www.inkscape.org/) -->

<svg
   width="11.732mm"
   height="11.732mm"
   viewBox="0 0 11.732001 11.731999"
   version="1.1"
   id="svg5"
   xml:space="preserve"
   xmlns="http://www.w3.org/2000/svg"
   xmlns:svg="http://www.w3.org/2000/svg"><defs
     id="defs2"><clipPath
       clipPathUnits="userSpaceOnUse"
       id="clipPath5662"><path
         d="m -379.1198,-599.2827 h 595.27599 v 841.89 H -379.1198 Z"
         id="path5664"
         style="stroke-width:0.999998" /></clipPath><clipPath
       clipPathUnits="userSpaceOnUse"
       id="clipPath5666"><path
         d="M -354.90339,-565.0061 H 240.3726 v 841.89 h -595.27599 z"
         id="path5668"
         style="stroke-width:0.999998" /></clipPath><clipPath
       clipPathUnits="userSpaceOnUse"
       id="clipPath5670"><path
         d="M -325.726,-648.9882 H 269.55 v 841.89 h -595.276 z"
         id="path5672"
         style="stroke-width:0.999998" /></clipPath><clipPath
       clipPathUnits="userSpaceOnUse"
       id="clipPath5674"><path
         d="m -299.0604,-636.5155 h 595.276 v 841.89 h -595.276 z"
         id="path5676"
         style="stroke-width:0.999998" /></clipPath><clipPath
       clipPathUnits="userSpaceOnUse"
       id="clipPath5734"><path
         d="m -340.34791,-662.0999 h 595.27599 v 841.89 h -595.27599 z"
         id="path5736"
         style="stroke-width:0.999998" /></clipPath></defs><g
     id="layer1"
     transform="translate(-104.22356,-87.164456)"><path
       d="m 114.11889,97.954055 -3.55865,-3.545417 q -0.38364,0.304271 -0.9062,0.47625 -0.52255,0.171979 -1.13109,0.171979 -1.52135,0 -2.57969,-1.058333 -1.05833,-1.058334 -1.05833,-2.553229 0,-1.494896 1.05833,-2.55323 1.05834,-1.058333 2.56646,-1.058333 1.4949,0 2.54662,1.058333 1.05171,1.058334 1.05171,2.55323 0,0.595312 -0.16536,1.104635 -0.16536,0.509323 -0.49609,0.959115 l 3.57187,3.54542 z m -5.60917,-4.14073 q 0.99219,0 1.67349,-0.694531 0.6813,-0.694531 0.6813,-1.673489 0,-0.992188 -0.6813,-1.680105 -0.6813,-0.687916 -1.67349,-0.687916 -0.99219,0 -1.68672,0.687916 -0.69453,0.687917 -0.69453,1.680105 0,0.978958 0.69453,1.673489 0.69453,0.694531 1.68672,0.694531 z"
       id="path13177"
       style="stroke:#ffffff;stroke-width:1.32292;stroke-dasharray:none;stroke-opacity:1" /></g></svg>
