<?xml version="1.0" encoding="UTF-8" standalone="no"?>
<!-- Created with Inkscape (http://www.inkscape.org/) -->

<svg
   width="10.75532mm"
   height="8.9164581mm"
   viewBox="0 0 10.755318 8.9164571"
   version="1.1"
   id="svg5"
   xml:space="preserve"
   xmlns:xlink="http://www.w3.org/1999/xlink"
   xmlns="http://www.w3.org/2000/svg"
   xmlns:svg="http://www.w3.org/2000/svg"><defs
     id="defs2"><linearGradient
       id="linearGradient32851"><stop
         style="stop-color:#ffff00;stop-opacity:1;"
         offset="0"
         id="stop32847" /><stop
         style="stop-color:#ffff00;stop-opacity:0;"
         offset="1"
         id="stop32849" /></linearGradient><clipPath
       clipPathUnits="userSpaceOnUse"
       id="clipPath5662"><path
         d="m -379.1198,-599.2827 h 595.27599 v 841.89 H -379.1198 Z"
         id="path5664"
         style="stroke-width:0.999998" /></clipPath><clipPath
       clipPathUnits="userSpaceOnUse"
       id="clipPath5666"><path
         d="M -354.90339,-565.0061 H 240.3726 v 841.89 h -595.27599 z"
         id="path5668"
         style="stroke-width:0.999998" /></clipPath><clipPath
       clipPathUnits="userSpaceOnUse"
       id="clipPath5670"><path
         d="M -325.726,-648.9882 H 269.55 v 841.89 h -595.276 z"
         id="path5672"
         style="stroke-width:0.999998" /></clipPath><clipPath
       clipPathUnits="userSpaceOnUse"
       id="clipPath5674"><path
         d="m -299.0604,-636.5155 h 595.276 v 841.89 h -595.276 z"
         id="path5676"
         style="stroke-width:0.999998" /></clipPath><clipPath
       clipPathUnits="userSpaceOnUse"
       id="clipPath5734"><path
         d="m -340.34791,-662.0999 h 595.27599 v 841.89 h -595.27599 z"
         id="path5736"
         style="stroke-width:0.999998" /></clipPath><linearGradient
       id="linearGradient23014"><stop
         style="stop-color:#ffed00;stop-opacity:1;"
         offset="0"
         id="stop23010" /><stop
         style="stop-color:#ffff00;stop-opacity:0;"
         offset="1"
         id="stop23012" /></linearGradient><clipPath
       clipPathUnits="userSpaceOnUse"
       id="clipPath5662-4"><path
         d="m -379.1198,-599.2827 h 595.27599 v 841.89 H -379.1198 Z"
         id="path5664-7"
         style="stroke-width:0.999998" /></clipPath><clipPath
       clipPathUnits="userSpaceOnUse"
       id="clipPath5666-9"><path
         d="M -354.90339,-565.0061 H 240.3726 v 841.89 h -595.27599 z"
         id="path5668-2"
         style="stroke-width:0.999998" /></clipPath><clipPath
       clipPathUnits="userSpaceOnUse"
       id="clipPath5670-9"><path
         d="M -325.726,-648.9882 H 269.55 v 841.89 h -595.276 z"
         id="path5672-1"
         style="stroke-width:0.999998" /></clipPath><clipPath
       clipPathUnits="userSpaceOnUse"
       id="clipPath5674-0"><path
         d="m -299.0604,-636.5155 h 595.276 v 841.89 h -595.276 z"
         id="path5676-8"
         style="stroke-width:0.999998" /></clipPath><clipPath
       clipPathUnits="userSpaceOnUse"
       id="clipPath5734-5"><path
         d="m -340.34791,-662.0999 h 595.27599 v 841.89 h -595.27599 z"
         id="path5736-3"
         style="stroke-width:0.999998" /></clipPath><linearGradient
       xlink:href="#linearGradient23014"
       id="linearGradient23016"
       x1="138.02112"
       y1="83.953651"
       x2="148.26645"
       y2="93.853653"
       gradientUnits="userSpaceOnUse"
       gradientTransform="translate(-0.79599676,-17.319388)" /><linearGradient
       xlink:href="#linearGradient32851"
       id="linearGradient32853"
       x1="135.9866"
       y1="79.60302"
       x2="146.74191"
       y2="88.591179"
       gradientUnits="userSpaceOnUse" /></defs><g
     id="layer1"
     transform="translate(-135.94317,-79.61716)"><path
       d="m 144.72734,85.662889 v -0.939271 h 1.4949 q 0.19843,0 0.33734,0.125677 0.13891,0.125677 0.13891,0.337344 0,0.185208 -0.1323,0.330729 -0.13229,0.145521 -0.34395,0.145521 z m 0,2.262187 v -0.93927 h 1.4949 q 0.19843,0 0.33734,0.132291 0.13891,0.132292 0.13891,0.33073 0,0.198437 -0.1323,0.337343 -0.13229,0.138906 -0.34395,0.138906 z m -2.27542,0.608542 q -0.42333,0 -0.73422,-0.297656 -0.31088,-0.297656 -0.39026,-0.760677 h -1.28323 V 85.17341 h 1.28323 q 0.0794,-0.463021 0.39026,-0.760677 0.31089,-0.297657 0.73422,-0.297657 h 1.87854 v 4.418542 z m -4.2201,-1.5875 q -0.97896,0 -1.6338,-0.641614 -0.65485,-0.641615 -0.65485,-1.633802 0,-0.992188 0.65485,-1.633803 0.65484,-0.641614 1.6338,-0.641614 h 0.85989 q 0.34396,0 0.54902,-0.211667 0.20505,-0.211667 0.20505,-0.555625 0,-0.343958 -0.20505,-0.555625 -0.20506,-0.211666 -0.54902,-0.211666 h -1.98437 q -0.25135,0 -0.44318,-0.185209 -0.19182,-0.185208 -0.19182,-0.436562 0,-0.264584 0.19182,-0.443177 0.19183,-0.178594 0.44318,-0.178594 h 1.98437 q 0.8599,0 1.43537,0.575469 0.57547,0.575468 0.57547,1.435364 0,0.859896 -0.57547,1.435365 -0.57547,0.575469 -1.43537,0.575469 h -0.85989 q -0.46302,0 -0.74745,0.277812 -0.28443,0.277812 -0.28443,0.754063 0,0.476249 0.28443,0.754062 0.28443,0.277813 0.74745,0.277813 h 1.41552 v 1.243541 z"
       id="path30576"
       style="stroke-width:0.264583;fill:#ffcc00" /><path
       d="m 144.72734,85.662889 v -0.939271 h 1.4949 q 0.19843,0 0.33734,0.125677 0.13891,0.125677 0.13891,0.337344 0,0.185208 -0.1323,0.330729 -0.13229,0.145521 -0.34395,0.145521 z m 0,2.262187 v -0.93927 h 1.4949 q 0.19843,0 0.33734,0.132291 0.13891,0.132292 0.13891,0.33073 0,0.198437 -0.1323,0.337343 -0.13229,0.138906 -0.34395,0.138906 z m -2.27542,0.608542 q -0.42333,0 -0.73422,-0.297656 -0.31088,-0.297656 -0.39026,-0.760677 h -1.28323 V 85.17341 h 1.28323 q 0.0794,-0.463021 0.39026,-0.760677 0.31089,-0.297657 0.73422,-0.297657 h 1.87854 v 4.418542 z m -4.2201,-1.5875 q -0.97896,0 -1.6338,-0.641614 -0.65485,-0.641615 -0.65485,-1.633802 0,-0.992188 0.65485,-1.633803 0.65484,-0.641614 1.6338,-0.641614 h 0.85989 q 0.34396,0 0.54902,-0.211667 0.20505,-0.211667 0.20505,-0.555625 0,-0.343958 -0.20505,-0.555625 -0.20506,-0.211666 -0.54902,-0.211666 h -1.98437 q -0.25135,0 -0.44318,-0.185209 -0.19182,-0.185208 -0.19182,-0.436562 0,-0.264584 0.19182,-0.443177 0.19183,-0.178594 0.44318,-0.178594 h 1.98437 q 0.8599,0 1.43537,0.575469 0.57547,0.575468 0.57547,1.435364 0,0.859896 -0.57547,1.435365 -0.57547,0.575469 -1.43537,0.575469 h -0.85989 q -0.46302,0 -0.74745,0.277812 -0.28443,0.277812 -0.28443,0.754063 0,0.476249 0.28443,0.754062 0.28443,0.277813 0.74745,0.277813 h 1.41552 v 1.243541 z"
       id="path31353"
       style="stroke-width:0.264583;fill:url(#linearGradient32853);fill-opacity:1" /></g></svg>
