<?xml version="1.0" encoding="UTF-8" standalone="no"?>
<svg
   height="40"
   width="40"
   version="1.1"
   id="svg10641"
   xml:space="preserve"
   xmlns:xlink="http://www.w3.org/1999/xlink"
   xmlns="http://www.w3.org/2000/svg"
   xmlns:svg="http://www.w3.org/2000/svg"><defs
     id="defs10645"><linearGradient
       id="linearGradient15153"><stop
         style="stop-color:#4783ff;stop-opacity:1;"
         offset="0"
         id="stop15149" /><stop
         style="stop-color:#4783ff;stop-opacity:0;"
         offset="1"
         id="stop15151" /></linearGradient><linearGradient
       xlink:href="#linearGradient15153"
       id="linearGradient15155"
       x1="0"
       y1="0"
       x2="40.014801"
       y2="40.014801"
       gradientUnits="userSpaceOnUse" /></defs><path
     d="m 27.35,29.65 2.25,-2.25 -7.95,-8 V 9.3500003 h -3 V 20.6 Z M 20,40 Q 15.9,40 12.25,38.425 8.6,36.85 5.875,34.125 3.15,31.4 1.575,27.75 0,24.1 0,20 0,15.899999 1.575,12.249999 3.15,8.6000003 5.875,5.8750001 8.6,3.15 12.25,1.575 15.9,0 20,0 q 4.1,0 7.75,1.575 3.65,1.575 6.375,4.3000001 2.725,2.7250002 4.3,6.3749989 Q 40,15.899999 40,20 q 0,4.1 -1.575,7.75 -1.575,3.65 -4.3,6.375 Q 31.4,36.85 27.75,38.425 24.1,40 20,40 Z m 0,-20 z m 0,17 q 7,0 12,-5 5,-5 5,-12 Q 37,12.999999 32,8.0000003 27,3 20,3 13,3 8,8.0000003 3,12.999999 3,20 q 0,7 5,12 5,5 12,5 z"
     id="path14761"
     style="fill:#4700ff;fill-opacity:1" /><path
     d="m 27.35,29.65 2.25,-2.25 -7.95,-8 V 9.3500003 h -3 V 20.6 Z M 20,40 Q 15.9,40 12.25,38.425 8.6,36.85 5.875,34.125 3.15,31.4 1.575,27.75 0,24.1 0,20 0,15.899999 1.575,12.249999 3.15,8.6000003 5.875,5.8750001 8.6,3.15 12.25,1.575 15.9,0 20,0 q 4.1,0 7.75,1.575 3.65,1.575 6.375,4.3000001 2.725,2.7250002 4.3,6.3749989 Q 40,15.899999 40,20 q 0,4.1 -1.575,7.75 -1.575,3.65 -4.3,6.375 Q 31.4,36.85 27.75,38.425 24.1,40 20,40 Z m 0,-20 z m 0,17 q 7,0 12,-5 5,-5 5,-12 Q 37,12.999999 32,8.0000003 27,3 20,3 13,3 8,8.0000003 3,12.999999 3,20 q 0,7 5,12 5,5 12,5 z"
     id="path15147"
     style="fill:url(#linearGradient15155);fill-opacity:1" /></svg>
